<svg width="26" height="28" viewBox="0 0 26 28" fill="none" xmlns="http://www.w3.org/2000/svg">
<path fill-rule="evenodd" clip-rule="evenodd" d="M19.6621 6.27128C19.3107 2.93731 16.4551 0.337949 12.9845 0.337949C11.2031 0.330549 9.48808 1.02546 8.22284 2.26906C7.12471 3.34841 6.44389 4.76391 6.28319 6.27128H6.28165C3.84982 6.27128 1.8067 8.03331 1.2327 11.0928L0.194002 19.042C-0.690148 24.8626 2.06918 27.4212 7.46944 27.4212H18.5232C23.5172 27.4212 26.5021 24.5372 25.8892 19.3614L24.8169 11.1461C24.1294 8.04854 22.1389 6.27128 19.7595 6.27128H19.6621ZM17.6603 6.27128C17.3208 4.02304 15.3563 2.29846 12.9803 2.29846C11.7229 2.29324 10.5153 2.78258 9.62434 3.65828C8.90112 4.36913 8.43495 5.28704 8.28506 6.27128H17.6603ZM6.28046 8.23115H19.7583C21.1537 8.23115 22.3796 9.32571 22.8609 11.4816L23.876 19.2917C24.4801 23.447 22.4692 25.4601 18.522 25.4601H7.46825C3.19406 25.4601 1.46914 23.8606 2.15993 19.3118L3.19299 11.3958C3.58775 9.29989 4.82699 8.23115 6.28046 8.23115ZM16.9118 11.8711C17.4603 11.8711 17.9049 12.3099 17.9049 12.8513C17.9049 13.3476 17.5313 13.7577 17.0466 13.8226L16.9118 13.8316H16.8512C16.3028 13.8316 15.8581 13.3927 15.8581 12.8513C15.8581 12.3551 16.2317 11.9449 16.7165 11.88L16.8512 11.8711H16.9118ZM10.1834 12.8513C10.1834 12.3099 9.73878 11.8711 9.1903 11.8711H9.1297L8.99494 11.88C8.5102 11.9449 8.13659 12.3551 8.13659 12.8513C8.13659 13.3927 8.58122 13.8316 9.1297 13.8316H9.1903L9.32506 13.8226C9.8098 13.7577 10.1834 13.3476 10.1834 12.8513Z" fill="#767676"/>
</svg>
