<svg width="28" height="28" viewBox="0 0 28 28" fill="none" xmlns="http://www.w3.org/2000/svg">
<path d="M1.82329 24.2568L0.880421 23.9236L0.880421 23.9236L1.82329 24.2568ZM3.75423 26.1878L3.42106 25.2449L3.42106 25.2449L3.75423 26.1878ZM8.02621 25.168L8.51109 24.2935L8.02621 25.168ZM2.52148 14.1318C2.52148 7.71958 7.71958 2.52148 14.1318 2.52148V0.521484C6.61501 0.521484 0.521484 6.61501 0.521484 14.1318H2.52148ZM3.79945 19.433C2.98285 17.8449 2.52148 16.0437 2.52148 14.1318H0.521484C0.521484 16.3692 1.06214 18.4832 2.02081 20.3476L3.79945 19.433ZM2.76616 24.59L3.93659 21.2777L2.05085 20.6113L0.880421 23.9236L2.76616 24.59ZM3.42106 25.2449C3.01427 25.3886 2.62241 24.9968 2.76616 24.59L0.880421 23.9236C0.176527 25.9157 2.09538 27.8345 4.0874 27.1306L3.42106 25.2449ZM6.60187 24.1209L3.42106 25.2449L4.0874 27.1306L7.26821 26.0067L6.60187 24.1209ZM14.1318 25.742C12.0907 25.742 10.1755 25.2162 8.51109 24.2935L7.54134 26.0426C9.49492 27.1257 11.7429 27.742 14.1318 27.742V25.742ZM25.742 14.1318C25.742 20.5439 20.5439 25.742 14.1318 25.742V27.742C21.6485 27.742 27.742 21.6485 27.742 14.1318H25.742ZM14.1318 2.52148C20.5439 2.52148 25.742 7.71958 25.742 14.1318H27.742C27.742 6.61501 21.6485 0.521484 14.1318 0.521484V2.52148ZM7.26821 26.0067C7.33488 25.9831 7.43462 25.9835 7.54134 26.0426L8.51109 24.2935C7.94944 23.9821 7.25575 23.8899 6.60187 24.1209L7.26821 26.0067ZM2.02081 20.3476C2.07434 20.4517 2.07353 20.5471 2.05085 20.6113L3.93659 21.2777C4.15874 20.649 4.08198 19.9825 3.79945 19.433L2.02081 20.3476Z" fill="#767676"/>
<circle cx="7.89074" cy="14.1954" r="1.57628" fill="#767676"/>
<circle cx="14.1954" cy="14.1954" r="1.57628" fill="#767676"/>
<circle cx="20.5021" cy="14.1954" r="1.57628" fill="#767676"/>
</svg>
