<svg width="30" height="30" viewBox="0 0 30 30" fill="none" xmlns="http://www.w3.org/2000/svg">
<rect x="9.02539" y="8.1875" width="12.5715" height="13.5882" rx="3.75022" fill="#828282"/>
<path d="M9.02539 14.4844H21.5969V18.0456C21.5969 20.1168 19.9179 21.7958 17.8467 21.7958H12.7756C10.7044 21.7958 9.02539 20.1168 9.02539 18.0456V14.4844Z" fill="#404040"/>
<path d="M2.5 11.2505V8.75036C2.5 5.00014 5.00014 2.5 8.75036 2.5H21.2511C25.0013 2.5 27.5014 5.00014 27.5014 8.75036V11.2505" stroke="#767676" stroke-width="2" stroke-miterlimit="10" stroke-linecap="round" stroke-linejoin="round"/>
<path d="M2.5 18.752V21.2521C2.5 25.0023 5.00014 27.5025 8.75036 27.5025H21.2511C25.0013 27.5025 27.5014 25.0023 27.5014 21.2521V18.752" stroke="#767676" stroke-width="2" stroke-miterlimit="10" stroke-linecap="round" stroke-linejoin="round"/>
<path d="M2.5 15H27.5014" stroke="#767676" stroke-width="2" stroke-miterlimit="10" stroke-linecap="round" stroke-linejoin="round"/>
</svg>
